<svg width="683" height="662" viewBox="0 0 683 662" fill="none" xmlns="http://www.w3.org/2000/svg">
<g id="welcomeSvg">
<path id="Vector" d="M504.97 32.194C512.486 48.1892 496.559 52.7198 478.315 61.293C460.07 69.8662 446.417 79.2355 438.901 63.2404C431.385 47.2452 425.286 15.4977 451.096 3.36944C477.795 -9.17666 497.454 16.1989 504.97 32.194Z" fill="#2F2E41"/>
<path id="Vector_2" d="M467.746 63.6502C481.311 63.6502 492.307 52.6538 492.307 39.0891C492.307 25.5244 481.311 14.5281 467.746 14.5281C454.182 14.5281 443.185 25.5244 443.185 39.0891C443.185 52.6538 454.182 63.6502 467.746 63.6502Z" fill="#FFB8B8"/>
<path id="Vector_3" d="M589.426 148.012C588.576 146.902 587.726 145.812 586.866 144.752C585.756 143.372 584.64 142.036 583.516 140.742C570.786 126.052 557.246 116.802 542.336 115.812H542.316L542.096 115.792L512.386 144.752L502.286 154.592L502.506 155.132L507.956 168.702H603.446C599.143 161.562 594.463 154.655 589.426 148.012Z" fill="#2F2E41"/>
<path id="Vector_4" d="M441.038 48.9773L449.83 44.8459L448.605 32.1626L454.484 42.6588L458.686 40.6841L457.972 33.2855L461.402 39.4083L492.626 24.7357C489.693 18.4948 484.402 13.6744 477.915 11.3351C471.428 8.99584 464.278 9.32918 458.037 12.2618L453.512 14.3883C447.271 17.321 442.45 22.6127 440.111 29.0994C437.772 35.5861 438.105 42.7364 441.038 48.9773Z" fill="#2F2E41"/>
<path id="Vector_5" d="M644.526 494.8H131.688C127.313 494.795 123.119 493.055 120.026 489.962C116.932 486.869 115.193 482.675 115.188 478.3V170.146C115.191 166.941 116.466 163.869 118.732 161.603C120.998 159.336 124.071 158.062 127.275 158.058H648.729C651.989 158.062 655.115 159.358 657.42 161.664C659.726 163.969 661.022 167.095 661.026 170.355V478.3C661.021 482.675 659.281 486.869 656.188 489.962C653.095 493.055 648.901 494.795 644.526 494.8Z" fill="#F2F2F2"/>
<path id="Vector_6" d="M147.688 478.3H628.526C632.77 478.3 636.839 476.614 639.84 473.614C642.84 470.613 644.526 466.544 644.526 462.3V200.752C644.526 196.509 642.84 192.439 639.84 189.439C636.839 186.438 632.77 184.752 628.526 184.752H147.688C143.444 184.752 139.374 186.438 136.374 189.439C133.373 192.439 131.688 196.509 131.688 200.752V462.3C131.688 466.544 133.373 470.613 136.374 473.614C139.374 476.614 143.444 478.3 147.688 478.3Z" fill="white"/>
<path id="Vector_7" d="M660.796 169.202H114.956V160.802C114.962 156.413 116.709 152.206 119.814 149.103C122.919 146 127.127 144.256 131.516 144.252H644.236C648.625 144.256 652.834 146 655.938 149.103C659.043 152.206 660.79 156.413 660.796 160.802V169.202Z" fill="#D16BA5"/>
<path id="Vector_8" d="M145.051 161.036C147.417 161.036 149.335 159.118 149.335 156.752C149.335 154.387 147.417 152.469 145.051 152.469C142.686 152.469 140.768 154.387 140.768 156.752C140.768 159.118 142.686 161.036 145.051 161.036Z" fill="white"/>
<path id="Vector_9" d="M161.31 161.036C163.676 161.036 165.594 159.118 165.594 156.752C165.594 154.387 163.676 152.469 161.31 152.469C158.944 152.469 157.027 154.387 157.027 156.752C157.027 159.118 158.944 161.036 161.31 161.036Z" fill="white"/>
<path id="Vector_10" d="M177.569 161.036C179.935 161.036 181.852 159.118 181.852 156.752C181.852 154.387 179.935 152.469 177.569 152.469C175.203 152.469 173.286 154.387 173.286 156.752C173.286 159.118 175.203 161.036 177.569 161.036Z" fill="white"/>
<g id="file2">
<path id="Vector_11" d="M403.11 421.579H360.11C357.592 421.576 355.177 420.574 353.396 418.793C351.615 417.012 350.613 414.598 350.61 412.079V369.079C350.613 366.56 351.615 364.146 353.396 362.365C355.177 360.584 357.592 359.582 360.11 359.579H403.11C405.629 359.582 408.044 360.584 409.825 362.365C411.606 364.146 412.607 366.56 412.61 369.079V412.079C412.607 414.598 411.606 417.012 409.825 418.793C408.044 420.574 405.629 421.576 403.11 421.579ZM360.11 361.579C358.122 361.581 356.215 362.372 354.809 363.778C353.403 365.184 352.612 367.091 352.61 369.079V412.079C352.612 414.068 353.403 415.974 354.809 417.38C356.215 418.786 358.122 419.577 360.11 419.579H403.11C405.099 419.577 407.005 418.786 408.411 417.38C409.817 415.974 410.608 414.068 410.61 412.079V369.079C410.608 367.091 409.817 365.184 408.411 363.778C407.005 362.372 405.099 361.581 403.11 361.579H360.11Z" fill="#CCCCCC"/>
</g>
<path id="Vector_12" d="M394.61 409.579H368.61C367.815 409.578 367.052 409.262 366.49 408.699C365.927 408.137 365.611 407.374 365.61 406.579V374.579C365.611 373.784 365.927 373.021 366.49 372.459C367.052 371.896 367.815 371.58 368.61 371.579H387.45C388.133 371.58 388.796 371.813 389.329 372.241L396.489 377.995C396.84 378.275 397.123 378.631 397.317 379.036C397.511 379.441 397.611 379.884 397.61 380.333V406.579C397.609 407.374 397.293 408.137 396.731 408.699C396.168 409.262 395.406 409.578 394.61 409.579ZM368.61 373.579C368.345 373.579 368.091 373.685 367.904 373.872C367.716 374.06 367.611 374.314 367.61 374.579V406.579C367.611 406.844 367.716 407.098 367.904 407.286C368.091 407.473 368.345 407.579 368.61 407.579H394.61C394.875 407.579 395.13 407.473 395.317 407.286C395.504 407.098 395.61 406.844 395.61 406.579V380.333C395.611 380.183 395.577 380.036 395.513 379.901C395.448 379.766 395.354 379.647 395.237 379.554L388.076 373.799C387.898 373.657 387.677 373.579 387.45 373.579H368.61Z" fill="#CCCCCC"/>
<path id="Vector_13" d="M389.61 385.579H373.61C373.345 385.579 373.091 385.474 372.903 385.286C372.716 385.099 372.61 384.844 372.61 384.579C372.61 384.314 372.716 384.06 372.903 383.872C373.091 383.684 373.345 383.579 373.61 383.579H389.61C389.875 383.579 390.13 383.684 390.317 383.872C390.505 384.06 390.61 384.314 390.61 384.579C390.61 384.844 390.505 385.099 390.317 385.286C390.13 385.474 389.875 385.579 389.61 385.579Z" fill="#CCCCCC"/>
<path id="Vector_14" d="M389.61 391.579H373.61C373.345 391.579 373.091 391.474 372.903 391.286C372.716 391.099 372.61 390.844 372.61 390.579C372.61 390.314 372.716 390.06 372.903 389.872C373.091 389.684 373.345 389.579 373.61 389.579H389.61C389.875 389.579 390.13 389.684 390.317 389.872C390.505 390.06 390.61 390.314 390.61 390.579C390.61 390.844 390.505 391.099 390.317 391.286C390.13 391.474 389.875 391.579 389.61 391.579Z" fill="#CCCCCC"/>
<path id="Vector_15" d="M389.61 397.579H373.61C373.345 397.579 373.091 397.474 372.903 397.286C372.716 397.099 372.61 396.844 372.61 396.579C372.61 396.314 372.716 396.06 372.903 395.872C373.091 395.684 373.345 395.579 373.61 395.579H389.61C389.875 395.579 390.13 395.684 390.317 395.872C390.505 396.06 390.61 396.314 390.61 396.579C390.61 396.844 390.505 397.099 390.317 397.286C390.13 397.474 389.875 397.579 389.61 397.579Z" fill="#CCCCCC"/>
<g id="file3">
<path id="Vector_16" d="M505.11 421.579H462.11C459.592 421.576 457.177 420.574 455.396 418.793C453.615 417.012 452.613 414.598 452.61 412.079V369.079C452.613 366.56 453.615 364.146 455.396 362.365C457.177 360.584 459.592 359.582 462.11 359.579H505.11C507.629 359.582 510.044 360.584 511.825 362.365C513.606 364.146 514.607 366.56 514.61 369.079V412.079C514.607 414.598 513.606 417.012 511.825 418.793C510.044 420.574 507.629 421.576 505.11 421.579ZM462.11 361.579C460.122 361.581 458.215 362.372 456.809 363.778C455.403 365.184 454.612 367.091 454.61 369.079V412.079C454.612 414.068 455.403 415.974 456.809 417.38C458.215 418.786 460.122 419.577 462.11 419.579H505.11C507.099 419.577 509.005 418.786 510.411 417.38C511.817 415.974 512.608 414.068 512.61 412.079V369.079C512.608 367.091 511.817 365.184 510.411 363.778C509.005 362.372 507.099 361.581 505.11 361.579H462.11Z" fill="#CCCCCC"/>
</g>
<path id="Vector_17" d="M497.61 401.579H469.61C468.815 401.578 468.052 401.262 467.49 400.699C466.927 400.137 466.611 399.374 466.61 398.579V382.579C466.611 381.784 466.927 381.021 467.49 380.459C468.052 379.896 468.815 379.58 469.61 379.579H497.61C498.406 379.58 499.168 379.896 499.731 380.459C500.293 381.021 500.609 381.784 500.61 382.579V398.579C500.609 399.374 500.293 400.137 499.731 400.699C499.168 401.262 498.406 401.578 497.61 401.579ZM469.61 381.579C469.345 381.579 469.091 381.685 468.903 381.872C468.716 382.06 468.611 382.314 468.61 382.579V398.579C468.611 398.844 468.716 399.098 468.903 399.286C469.091 399.473 469.345 399.579 469.61 399.579H497.61C497.875 399.579 498.13 399.473 498.317 399.286C498.505 399.098 498.61 398.844 498.61 398.579V382.579C498.61 382.314 498.505 382.06 498.317 381.872C498.13 381.685 497.875 381.579 497.61 381.579H469.61Z" fill="#CCCCCC"/>
<path id="Vector_18" d="M483.61 393.217C483.048 393.218 482.498 393.061 482.02 392.765L467.08 383.427C466.856 383.286 466.696 383.062 466.637 382.804C466.578 382.546 466.623 382.275 466.764 382.05C466.904 381.825 467.128 381.665 467.386 381.606C467.644 381.546 467.916 381.591 468.141 381.731L483.081 391.068C483.24 391.167 483.424 391.219 483.611 391.219C483.798 391.219 483.981 391.167 484.141 391.068L499.08 381.731C499.305 381.591 499.576 381.546 499.834 381.606C500.092 381.665 500.316 381.825 500.457 382.05C500.597 382.275 500.643 382.546 500.583 382.804C500.524 383.062 500.365 383.286 500.141 383.427L485.201 392.765C484.724 393.061 484.172 393.218 483.61 393.217Z" fill="#CCCCCC"/>
<g id="file">
<path id="Vector_19" d="M301.11 421.579H258.11C255.592 421.576 253.177 420.574 251.396 418.793C249.615 417.012 248.613 414.598 248.61 412.079V369.079C248.613 366.56 249.615 364.146 251.396 362.365C253.177 360.584 255.592 359.582 258.11 359.579H301.11C303.629 359.582 306.044 360.584 307.825 362.365C309.606 364.146 310.607 366.56 310.61 369.079V412.079C310.607 414.598 309.606 417.012 307.825 418.793C306.044 420.574 303.629 421.576 301.11 421.579ZM258.11 361.579C256.122 361.581 254.215 362.372 252.809 363.778C251.403 365.184 250.612 367.091 250.61 369.079V412.079C250.612 414.068 251.403 415.974 252.809 417.38C254.215 418.786 256.122 419.577 258.11 419.579H301.11C303.099 419.577 305.005 418.786 306.411 417.38C307.817 415.974 308.608 414.068 308.61 412.079V369.079C308.608 367.091 307.817 365.184 306.411 363.778C305.005 362.372 303.099 361.581 301.11 361.579H258.11Z" fill="#CCCCCC"/>
</g>
<path id="Vector_20" d="M293.61 401.579H265.61C264.815 401.578 264.052 401.262 263.49 400.699C262.927 400.137 262.611 399.374 262.61 398.579V382.579C262.611 381.784 262.927 381.021 263.49 380.459C264.052 379.896 264.815 379.58 265.61 379.579H293.61C294.406 379.58 295.168 379.896 295.731 380.459C296.293 381.021 296.609 381.784 296.61 382.579V398.579C296.609 399.374 296.293 400.137 295.731 400.699C295.168 401.262 294.406 401.578 293.61 401.579ZM265.61 381.579C265.345 381.579 265.091 381.685 264.903 381.872C264.716 382.06 264.61 382.314 264.61 382.579V398.579C264.61 398.844 264.716 399.098 264.903 399.286C265.091 399.473 265.345 399.579 265.61 399.579H293.61C293.875 399.579 294.13 399.473 294.317 399.286C294.505 399.098 294.61 398.844 294.61 398.579V382.579C294.61 382.314 294.505 382.06 294.317 381.872C294.13 381.685 293.875 381.579 293.61 381.579H265.61Z" fill="#CCCCCC"/>
<path id="Vector_21" d="M289.172 401.579H269.048C268.697 401.579 268.352 401.487 268.048 401.311C267.744 401.136 267.491 400.883 267.316 400.579C267.14 400.275 267.048 399.93 267.048 399.579C267.048 399.228 267.141 398.883 267.316 398.579L273.378 388.079C273.553 387.775 273.806 387.523 274.11 387.347C274.414 387.172 274.759 387.079 275.11 387.079C275.461 387.079 275.806 387.172 276.11 387.347C276.414 387.523 276.667 387.775 276.842 388.079L280.757 394.86L283.025 390.932C283.201 390.628 283.453 390.375 283.757 390.2C284.061 390.024 284.406 389.932 284.757 389.932C285.109 389.932 285.453 390.024 285.757 390.2C286.062 390.375 286.314 390.628 286.49 390.932L290.905 398.579C291.08 398.883 291.173 399.228 291.173 399.579C291.173 399.93 291.08 400.275 290.905 400.579C290.729 400.883 290.476 401.136 290.172 401.311C289.868 401.487 289.523 401.579 289.172 401.579H289.172ZM289.172 399.579L284.757 391.932L281.623 397.36C281.536 397.512 281.409 397.639 281.257 397.726C281.105 397.814 280.933 397.86 280.757 397.86C280.582 397.86 280.409 397.814 280.257 397.726C280.105 397.639 279.979 397.512 279.891 397.36L275.11 389.079L269.048 399.579H289.172Z" fill="#CCCCCC"/>
<path id="Vector_22" d="M290.61 387.579C291.715 387.579 292.61 386.683 292.61 385.579C292.61 384.474 291.715 383.579 290.61 383.579C289.506 383.579 288.61 384.474 288.61 385.579C288.61 386.683 289.506 387.579 290.61 387.579Z" fill="#CCCCCC"/>
<path id="Vector_23" d="M665.433 308.973H361.433C357.059 308.968 352.865 307.228 349.771 304.134C346.678 301.041 344.938 296.847 344.933 292.473V227.473C344.938 223.098 346.678 218.904 349.771 215.811C352.865 212.718 357.059 210.978 361.433 210.973H665.433C669.808 210.978 674.002 212.718 677.095 215.811C680.188 218.904 681.928 223.098 681.933 227.473V292.473C681.928 296.847 680.188 301.041 677.095 304.134C674.002 307.228 669.808 308.968 665.433 308.973Z" fill="white"/>
<path id="Vector_24" d="M665.433 309.473H361.433C356.926 309.468 352.605 307.675 349.418 304.488C346.231 301.301 344.438 296.98 344.433 292.473V227.473C344.438 222.966 346.231 218.645 349.418 215.458C352.605 212.271 356.926 210.478 361.433 210.473H665.433C669.94 210.478 674.261 212.271 677.448 215.458C680.635 218.645 682.428 222.966 682.433 227.473V292.473C682.428 296.98 680.635 301.301 677.448 304.488C674.261 307.675 669.94 309.468 665.433 309.473ZM361.433 212.473C357.456 212.477 353.644 214.059 350.831 216.871C348.019 219.683 346.438 223.496 346.433 227.473V292.473C346.438 296.45 348.019 300.262 350.831 303.074C353.644 305.886 357.456 307.468 361.433 307.473H665.433C669.41 307.468 673.223 305.886 676.035 303.074C678.847 300.262 680.429 296.45 680.433 292.473V227.473C680.429 223.496 678.847 219.683 676.035 216.871C673.223 214.059 669.41 212.477 665.433 212.473H361.433Z" fill="#3F3D56"/>
<path id="Vector_25" d="M628.433 292.973H398.433C394.059 292.968 389.865 291.228 386.771 288.135C383.678 285.041 381.938 280.847 381.933 276.473V242.473C381.938 238.098 383.678 233.904 386.771 230.811C389.865 227.718 394.059 225.978 398.433 225.973H628.433C632.808 225.978 637.002 227.718 640.095 230.811C643.188 233.904 644.928 238.098 644.933 242.473V276.473C644.928 280.847 643.188 285.041 640.095 288.135C637.002 291.228 632.808 292.968 628.433 292.973Z" fill="#F2F2F2"/>
<path id="Vector_26" d="M447.928 274.647C458.826 274.647 467.66 265.813 467.66 254.915C467.66 244.017 458.826 235.183 447.928 235.183C437.03 235.183 428.196 244.017 428.196 254.915C428.196 265.813 437.03 274.647 447.928 274.647Z" fill="#FF6584"/>
<path id="Vector_27" d="M614.14 290.981L586.288 267.622L558.916 244.665C558.194 244.06 557.281 243.728 556.338 243.73C555.395 243.732 554.483 244.067 553.763 244.675L526.48 267.737L519.816 273.37L509.768 264.943L479.23 239.332C478.508 238.726 477.595 238.395 476.652 238.397C475.71 238.399 474.798 238.733 474.078 239.342L443.64 265.07L412.723 291.204C412.566 291.336 412.454 291.514 412.402 291.712C412.349 291.91 412.359 292.12 412.43 292.312C412.5 292.505 412.629 292.671 412.797 292.788C412.965 292.905 413.165 292.968 413.371 292.968L476.757 292.845L496.821 292.807L496.625 292.973L556.433 292.858L613.499 292.748C613.705 292.747 613.905 292.684 614.072 292.566C614.24 292.448 614.368 292.281 614.438 292.089C614.508 291.896 614.517 291.686 614.463 291.488C614.41 291.29 614.297 291.113 614.14 290.981Z" fill="#3F3D56"/>
<path id="Vector_28" d="M604.056 131.912C603.257 130.614 602.203 129.493 600.956 128.616C599.71 127.739 598.298 127.125 596.806 126.812C596.26 126.697 595.704 126.627 595.146 126.602L518.956 58.4823C517.459 56.944 515.463 55.9902 513.326 55.7923C512.905 55.7438 512.48 55.7305 512.056 55.7523C510.298 55.8322 508.602 56.4225 507.174 57.4512C505.746 58.4798 504.649 59.9022 504.017 61.5444C503.385 63.1866 503.245 64.9774 503.614 66.698C503.983 68.4185 504.846 69.9941 506.096 71.2323L535.266 96.6623L583.166 138.412C583.205 139.199 583.323 139.979 583.516 140.742C584.089 142.953 585.321 144.938 587.048 146.432C588.775 147.927 590.916 148.862 593.186 149.112C595.257 149.354 597.354 149.008 599.236 148.112C600.729 147.414 602.053 146.401 603.116 145.142C603.226 145.012 603.326 144.892 603.426 144.752C604.825 142.93 605.634 140.725 605.747 138.431C605.859 136.137 605.269 133.863 604.056 131.912H604.056Z" fill="#FFB8B8"/>
<path id="Vector_29" d="M473.736 197.562L473.026 168.702L472.426 144.752L472.016 127.992L471.206 95.3223C471.046 93.5732 470.38 91.9085 469.289 90.5315C468.199 89.1545 466.731 88.1248 465.065 87.5681C463.399 87.0114 461.607 86.9517 459.908 87.3964C458.209 87.8411 456.676 88.7709 455.496 90.0723C455.218 90.3697 454.967 90.6909 454.746 91.0323C453.515 92.7956 452.961 94.9436 453.186 97.0823L454.966 144.752L455.856 168.702L456.996 199.252C456.667 199.701 456.37 200.172 456.106 200.662C455.395 202.011 454.965 203.49 454.843 205.009C454.721 206.529 454.909 208.058 455.396 209.502C455.904 211.017 456.728 212.408 457.812 213.581C458.896 214.755 460.217 215.686 461.687 216.312C463.157 216.939 464.743 217.247 466.341 217.216C467.938 217.185 469.511 216.815 470.956 216.132C472.634 215.339 474.091 214.145 475.197 212.655C476.304 211.165 477.027 209.425 477.302 207.589C477.577 205.754 477.395 203.879 476.773 202.13C476.151 200.381 475.108 198.812 473.736 197.562H473.736Z" fill="#FFB8B8"/>
<path id="Vector_30" d="M542.336 115.812L535.266 96.6623L523.826 65.6423C523.001 63.3853 521.678 61.3432 519.955 59.6674C518.233 57.9916 516.155 56.7253 513.876 55.9623C513.696 55.9023 513.506 55.8423 513.326 55.7923C511.119 55.1222 508.792 54.938 506.507 55.2521C504.221 55.5663 502.031 56.3714 500.086 57.6122L461.556 82.0522C458.027 84.2854 455.505 87.8027 454.522 91.8613C453.538 95.9198 454.171 100.202 456.286 103.802C461.105 112.134 466.355 120.208 472.016 127.992C476.506 134.102 484.866 134.752 486.316 144.752H514.726L543.486 118.932L542.336 115.812Z" fill="#CCCCCC"/>
<path id="Vector_31" d="M101.165 349.854C113.962 349.854 124.336 339.48 124.336 326.682C124.336 313.885 113.962 303.511 101.165 303.511C88.3673 303.511 77.993 313.885 77.993 326.682C77.993 339.48 88.3673 349.854 101.165 349.854Z" fill="#A0616A"/>
<path id="Vector_32" d="M158.051 310.732C158.28 310.914 158.501 311.107 158.715 311.31C159.78 312.313 160.62 313.529 161.182 314.879C161.744 316.23 162.014 317.683 161.974 319.145C161.935 320.607 161.587 322.044 160.953 323.362C160.32 324.68 159.415 325.85 158.298 326.794C158.038 327.012 157.766 327.217 157.484 327.407L159.053 380.352C159.097 382.085 158.582 383.787 157.583 385.204C156.584 386.621 155.155 387.678 153.508 388.219L153.412 388.24L110.423 392.818C109.255 392.942 108.073 392.833 106.946 392.498C105.82 392.163 104.771 391.609 103.86 390.866C102.949 390.123 102.194 389.208 101.639 388.172C101.084 387.136 100.739 386 100.626 384.83C100.512 383.66 100.631 382.479 100.976 381.356C101.321 380.232 101.886 379.188 102.636 378.284C103.387 377.38 104.31 376.633 105.351 376.088C106.392 375.542 107.53 375.208 108.701 375.105L139.345 372.406L144.645 326.555C144.298 326.248 143.974 325.917 143.674 325.565C142.012 323.598 141.14 321.084 141.228 318.511C141.316 315.938 142.357 313.49 144.149 311.641C145.941 309.792 148.356 308.676 150.925 308.508C153.494 308.34 156.034 309.133 158.051 310.732H158.051Z" fill="#A0616A"/>
<path id="Vector_33" d="M139.328 649.174H150.895L156.397 604.561H139.326L139.328 649.174Z" fill="#A0616A"/>
<path id="Vector_34" d="M136.378 645.398L159.156 645.397H159.157C161.063 645.397 162.951 645.772 164.712 646.502C166.473 647.231 168.074 648.3 169.422 649.648C170.77 650.996 171.839 652.597 172.568 654.358C173.298 656.119 173.673 658.007 173.673 659.913V660.385L136.379 660.386L136.378 645.398Z" fill="#2F2E41"/>
<path id="Vector_35" d="M24.366 633.182L34.304 639.099L61.857 603.582L47.189 594.849L24.366 633.182Z" fill="#A0616A"/>
<path id="Vector_36" d="M23.7629 628.428L43.3346 640.081L43.3353 640.082C44.9733 641.057 46.4031 642.345 47.5431 643.873C48.6831 645.401 49.511 647.138 49.9796 648.986C50.4481 650.834 50.5481 652.756 50.2739 654.642C49.9996 656.529 49.3565 658.343 48.3812 659.981L48.1398 660.386L16.0953 641.307L23.7629 628.428Z" fill="#2F2E41"/>
<path id="Vector_37" d="M153.624 633.417H140.672C139.624 633.418 138.611 633.031 137.832 632.33C137.052 631.628 136.56 630.663 136.451 629.62L123.394 506.883C123.361 506.574 123.227 506.284 123.013 506.059C122.799 505.833 122.517 505.684 122.21 505.635C121.904 505.586 121.589 505.639 121.316 505.786C121.042 505.933 120.824 506.166 120.696 506.449L97.141 558.608L55.4374 626.611C54.8977 627.483 54.062 628.131 53.0833 628.437C52.1047 628.743 51.0487 628.686 50.1085 628.277L33.4483 620.947C32.8974 620.704 32.4044 620.347 32.0019 619.9C31.5994 619.452 31.2967 618.924 31.1137 618.351C30.9308 617.777 30.8718 617.172 30.9407 616.574C31.0096 615.976 31.2049 615.399 31.5135 614.883L69.8506 550.69L81.6082 496.605C77.9103 473.15 93.7632 438.279 93.924 437.929L94.0025 437.759L137.67 420.691L137.889 420.959C155.11 477.473 165.604 538.291 157.856 629.527C157.76 630.585 157.274 631.57 156.491 632.289C155.709 633.008 154.687 633.41 153.624 633.417Z" fill="#2F2E41"/>
<path id="Vector_38" d="M92.2433 443.474L92.0399 443.046C91.9427 442.842 82.2329 422.362 74.7479 400.475C73.3094 396.242 72.7656 391.757 73.1509 387.303C73.5363 382.849 74.8424 378.524 76.9865 374.601C79.1585 370.638 82.1299 367.169 85.7125 364.414C89.2952 361.659 93.4109 359.678 97.7991 358.597C105.417 356.771 113.438 357.743 120.399 361.335C127.361 364.927 132.8 370.9 135.727 378.167C141.664 393.014 139.772 408.861 137.991 421.324L137.956 421.574L137.729 421.682L92.2433 443.474Z" fill="#3F3D56"/>
<path id="Vector_39" d="M129.26 313.593H92.4658V297.555C100.542 294.346 108.444 291.618 113.221 297.555C117.475 297.555 121.554 299.245 124.562 302.252C127.57 305.26 129.26 309.339 129.26 313.593V313.593Z" fill="#2F2E41"/>
<path id="Vector_40" d="M90.4287 294.724C68.4326 294.724 62.2759 322.296 62.2759 337.85C62.2759 346.524 66.1989 349.627 72.3635 350.677L74.5405 339.066L79.6396 351.176C81.3712 351.185 83.1904 351.152 85.0763 351.117L86.8052 347.557L90.6604 351.053C106.101 351.076 118.581 353.327 118.581 337.85C118.581 322.296 113.182 294.724 90.4287 294.724Z" fill="#2F2E41"/>
<path id="Vector_41" d="M193 661.473H1C0.734784 661.473 0.480429 661.367 0.292892 661.18C0.105356 660.992 0 660.738 0 660.473C0 660.208 0.105356 659.953 0.292892 659.766C0.480429 659.578 0.734784 659.473 1 659.473H193C193.265 659.473 193.52 659.578 193.707 659.766C193.895 659.953 194 660.208 194 660.473C194 660.738 193.895 660.992 193.707 661.18C193.52 661.367 193.265 661.473 193 661.473Z" fill="#CCCCCC"/>
<path id="Vector_42" d="M196.61 332.473H153.61C151.092 332.47 148.677 331.468 146.896 329.687C145.115 327.906 144.113 325.491 144.11 322.973V279.973C144.113 277.454 145.115 275.039 146.896 273.258C148.677 271.477 151.092 270.476 153.61 270.473H196.61C199.129 270.476 201.544 271.477 203.325 273.258C205.106 275.039 206.107 277.454 206.11 279.973V322.973C206.107 325.491 205.106 327.906 203.325 329.687C201.544 331.468 199.129 332.47 196.61 332.473Z" fill="white"/>
<g id="handfile">
<path id="Vector_43" d="M195.5 332H152.5C149.981 331.997 147.567 330.995 145.786 329.214C144.005 327.433 143.003 325.019 143 322.5V279.5C143.003 276.981 144.005 274.567 145.786 272.786C147.567 271.005 149.981 270.003 152.5 270H195.5C198.019 270.003 200.433 271.005 202.214 272.786C203.995 274.567 204.997 276.981 205 279.5V322.5C204.997 325.019 203.995 327.433 202.214 329.214C200.433 330.995 198.019 331.997 195.5 332ZM152.5 272C150.512 272.002 148.605 272.793 147.199 274.199C145.793 275.605 145.002 277.512 145 279.5V322.5C145.002 324.488 145.793 326.395 147.199 327.801C148.605 329.207 150.512 329.998 152.5 330H195.5C197.488 329.998 199.395 329.207 200.801 327.801C202.207 326.395 202.998 324.488 203 322.5V279.5C202.998 277.512 202.207 275.605 200.801 274.199C199.395 272.793 197.488 272.002 195.5 272H152.5Z" fill="#3F3D56"/>
</g>
<path id="Vector_44" d="M189.99 315.852H161.99C161.194 315.852 160.432 315.535 159.87 314.973C159.307 314.41 158.991 313.648 158.99 312.852V291.852C158.991 291.057 159.307 290.294 159.87 289.732C160.432 289.17 161.194 288.853 161.99 288.852H169.872C170.385 288.851 170.889 288.981 171.337 289.231C171.785 289.481 172.16 289.842 172.427 290.28L174.626 293.852H189.99C190.785 293.853 191.548 294.17 192.11 294.732C192.673 295.294 192.989 296.057 192.99 296.852V312.852C192.989 313.648 192.673 314.41 192.11 314.973C191.548 315.535 190.785 315.852 189.99 315.852Z" fill="#D16BA5"/>
<path id="Vector_45" d="M188.199 325.582C188.339 325.838 188.469 326.101 188.587 326.372C189.179 327.709 189.482 329.157 189.475 330.619C189.469 332.081 189.154 333.526 188.55 334.858C187.947 336.19 187.068 337.38 185.973 338.349C184.878 339.318 183.59 340.044 182.194 340.481C181.87 340.581 181.54 340.664 181.206 340.73L162.107 390.135C161.476 391.75 160.34 393.118 158.87 394.037C157.399 394.955 155.672 395.375 153.944 395.234L153.848 395.216L112.451 382.754C111.326 382.415 110.278 381.856 109.37 381.11C108.461 380.365 107.71 379.446 107.158 378.408C106.607 377.37 106.266 376.233 106.157 375.063C106.047 373.893 106.17 372.712 106.52 371.59C106.869 370.467 107.437 369.425 108.191 368.524C108.945 367.622 109.87 366.879 110.913 366.337C111.956 365.795 113.096 365.465 114.268 365.366C115.439 365.267 116.618 365.401 117.737 365.761L147.027 375.164L169.704 334.963C169.503 334.545 169.333 334.114 169.193 333.673C168.424 331.216 168.597 328.561 169.676 326.224C170.756 323.886 172.665 322.034 175.034 321.025C177.403 320.017 180.062 319.925 182.495 320.767C184.928 321.609 186.961 323.325 188.199 325.582H188.199Z" fill="#A0616A"/>
</g>
</svg>
